<?xml version="1.0" encoding="UTF-8"?>
<!DOCTYPE svg PUBLIC "-//W3C//DTD SVG 1.1//EN" "http://www.w3.org/Graphics/SVG/1.1/DTD/svg11.dtd">
<svg xmlns="http://www.w3.org/2000/svg" version="1.1" width="327px" height="227px" style="shape-rendering:geometricPrecision; text-rendering:geometricPrecision; image-rendering:optimizeQuality; fill-rule:evenodd; clip-rule:evenodd" xmlns:xlink="http://www.w3.org/1999/xlink">
<g><path style="opacity:1" fill="#fefefe" d="M -0.5,-0.5 C 108.5,-0.5 217.5,-0.5 326.5,-0.5C 326.5,75.1667 326.5,150.833 326.5,226.5C 217.5,226.5 108.5,226.5 -0.5,226.5C -0.5,150.833 -0.5,75.1667 -0.5,-0.5 Z"/></g>
<g><path style="opacity:1" fill="#12100c" d="M 231.5,66.5 C 230.833,64.1667 230.167,61.8333 229.5,59.5C 186.002,57.9651 142.335,56.9651 98.5,56.5C 98.5,55.8333 98.5,55.1667 98.5,54.5C 143.484,55.4433 188.484,55.9433 233.5,56C 235.18,55.6532 236.18,54.6532 236.5,53C 234.729,50.5127 232.562,48.346 230,46.5C 227.874,39.3963 223.707,33.8963 217.5,30C 180.833,28 144.167,28 107.5,30C 105.08,30.2904 102.746,30.7904 100.5,31.5C 100.5,30.8333 100.5,30.1667 100.5,29.5C 102.042,28.6993 103.708,28.366 105.5,28.5C 106.927,23.027 104.927,19.6937 99.5,18.5C 97.7209,14.9036 98.7209,12.4036 102.5,11C 140.784,8.12343 179.117,6.7901 217.5,7C 221.161,12.7518 219.494,15.5851 212.5,15.5C 212.354,19.5191 212.021,23.5191 211.5,27.5C 217.544,27.2717 222.377,29.6051 226,34.5C 228.525,41.0133 232.525,46.3467 238,50.5C 238.667,52.1667 238.667,53.8333 238,55.5C 236.247,56.627 234.413,57.627 232.5,58.5C 231.52,61.0865 231.187,63.7531 231.5,66.5 Z"/></g>
<g><path style="opacity:1" fill="#f7f7f7" d="M 201.5,24.5 C 196.944,26.4417 191.944,27.1083 186.5,26.5C 162.821,26.2891 139.154,26.6224 115.5,27.5C 115.5,24.8333 115.5,22.1667 115.5,19.5C 143.433,16.7244 171.433,15.8911 199.5,17C 201.113,19.2276 201.78,21.7276 201.5,24.5 Z"/></g>
<g><path style="opacity:1" fill="#575757" d="M 201.5,24.5 C 202.404,25.209 202.737,26.209 202.5,27.5C 196.974,27.8214 191.64,27.4881 186.5,26.5C 191.944,27.1083 196.944,26.4417 201.5,24.5 Z"/></g>
<g><path style="opacity:1" fill="#f1c541" d="M 98.5,54.5 C 95.3926,54.6488 92.3926,54.1488 89.5,53C 88.1059,52.044 87.4393,50.7106 87.5,49C 90.6694,44.8057 93.5027,40.3057 96,35.5C 97.3712,33.9586 98.8712,32.6253 100.5,31.5C 102.746,30.7904 105.08,30.2904 107.5,30C 144.167,28 180.833,28 217.5,30C 223.707,33.8963 227.874,39.3963 230,46.5C 232.562,48.346 234.729,50.5127 236.5,53C 236.18,54.6532 235.18,55.6532 233.5,56C 188.484,55.9433 143.484,55.4433 98.5,54.5 Z"/></g>
<g><path style="opacity:1" fill="#261f0f" d="M 132.5,40.5 C 162.533,40.0366 192.533,40.7033 222.5,42.5C 184.496,41.9168 146.496,42.5834 108.5,44.5C 105.5,44.1667 102.5,43.8333 99.5,43.5C 101.333,43.1667 103.167,42.8333 105,42.5C 114.334,41.9966 123.501,41.33 132.5,40.5 Z"/></g>
<g><path style="opacity:1" fill="#f8ca43" d="M 98.5,56.5 C 142.335,56.9651 186.002,57.9651 229.5,59.5C 229.665,62.5184 229.498,65.5184 229,68.5C 221.032,98.0398 213.532,127.706 206.5,157.5C 206.082,160.09 205.082,162.423 203.5,164.5C 201.031,162.993 198.865,163.327 197,165.5C 196.39,172.181 196.556,178.848 197.5,185.5C 197.333,187.167 197.167,188.833 197,190.5C 196.25,191.126 195.416,191.626 194.5,192C 175.167,192.667 155.833,192.667 136.5,192C 131.416,191.827 126.416,191.161 121.5,190C 120.069,189.535 118.903,188.701 118,187.5C 117.667,180.833 117.333,174.167 117,167.5C 112.891,167.529 111.057,165.529 111.5,161.5C 105.177,126.563 99.1771,91.5627 93.5,56.5C 95.1667,56.5 96.8333,56.5 98.5,56.5 Z"/></g>
<g><path style="opacity:1" fill="#1e1a13" d="M 100.5,29.5 C 100.5,30.1667 100.5,30.8333 100.5,31.5C 98.8712,32.6253 97.3712,33.9586 96,35.5C 93.5027,40.3057 90.6694,44.8057 87.5,49C 87.4393,50.7106 88.1059,52.044 89.5,53C 92.3926,54.1488 95.3926,54.6488 98.5,54.5C 98.5,55.1667 98.5,55.8333 98.5,56.5C 96.8333,56.5 95.1667,56.5 93.5,56.5C 99.1771,91.5627 105.177,126.563 111.5,161.5C 110.566,162.568 110.232,163.901 110.5,165.5C 103.754,129.029 97.4207,92.3619 91.5,55.5C 86.879,54.7212 84.7123,52.0545 85,47.5C 89.1094,43.3902 92.4427,38.7235 95,33.5C 96.4321,31.5612 98.2654,30.2279 100.5,29.5 Z"/></g>
<g><path style="opacity:1" fill="#e9d7b0" d="M 99.5,62.5 C 100.75,62.5774 101.583,63.244 102,64.5C 105.546,79.3512 109.713,94.0179 114.5,108.5C 114.167,108.833 113.833,109.167 113.5,109.5C 107.401,94.2907 102.734,78.6241 99.5,62.5 Z"/></g>
<g><path style="opacity:1" fill="#221e16" d="M 229.5,59.5 C 230.167,61.8333 230.833,64.1667 231.5,66.5C 223.642,97.6008 215.642,128.601 207.5,159.5C 207.672,158.508 207.338,157.842 206.5,157.5C 213.532,127.706 221.032,98.0398 229,68.5C 229.498,65.5184 229.665,62.5184 229.5,59.5 Z"/></g>
<g><path style="opacity:1" fill="#17170d" d="M 161.5,82.5 C 167.965,84.1345 171.965,88.3011 173.5,95C 171.604,99.2343 168.604,102.568 164.5,105C 163.216,105.684 162.049,105.517 161,104.5C 160.506,102.866 160.34,101.199 160.5,99.5C 158.345,99.372 156.345,99.872 154.5,101C 151.5,104 148.5,107 145.5,110C 141.466,110.976 139.466,109.309 139.5,105C 143.373,95.7238 150.373,90.8904 160.5,90.5C 160.279,87.7212 160.612,85.0545 161.5,82.5 Z"/></g>
<g><path style="opacity:1" fill="#56bc78" d="M 162.5,84.5 C 164.903,84.393 166.736,85.393 168,87.5C 169.185,89.8696 170.351,92.2029 171.5,94.5C 169.72,98.6168 166.72,101.283 162.5,102.5C 162.5,100.5 162.5,98.5 162.5,96.5C 159.375,96.8647 156.375,97.698 153.5,99C 150.062,102.025 146.729,105.192 143.5,108.5C 142.054,107.829 141.388,106.662 141.5,105C 143.05,99.7806 146.383,96.1139 151.5,94C 155.07,92.6905 158.737,91.8572 162.5,91.5C 162.5,89.1667 162.5,86.8333 162.5,84.5 Z"/></g>
<g><path style="opacity:1" fill="#e9d7b1" d="M 218.5,83.5 C 219.598,84.6009 219.765,85.9343 219,87.5C 215.057,99.8286 211.223,112.162 207.5,124.5C 209.412,110.528 213.079,96.8617 218.5,83.5 Z"/></g>
<g><path style="opacity:1" fill="#14150b" d="M 170.5,118.5 C 172.833,118.5 175.167,118.5 177.5,118.5C 177.815,114.629 177.482,110.962 176.5,107.5C 176.272,100.556 179.106,98.8895 185,102.5C 185.667,103.833 186.333,105.167 187,106.5C 187.173,110.541 187.673,114.541 188.5,118.5C 191.113,119.331 192.28,120.998 192,123.5C 187.189,126.822 182.022,129.489 176.5,131.5C 172.804,128.464 169.804,124.797 167.5,120.5C 168.005,119.081 169.005,118.415 170.5,118.5 Z"/></g>
<g><path style="opacity:1" fill="#57be79" d="M 179.5,102.5 C 181.39,102.297 182.89,102.963 184,104.5C 185.697,109.128 185.864,113.795 184.5,118.5C 186.167,119.833 187.833,121.167 189.5,122.5C 185.722,125.474 181.555,127.807 177,129.5C 174.199,127.026 171.699,124.193 169.5,121C 172.619,119.595 175.952,119.095 179.5,119.5C 179.015,113.74 179.015,108.074 179.5,102.5 Z"/></g>
<g><path style="opacity:1" fill="#a3852c" d="M 176.5,107.5 C 177.482,110.962 177.815,114.629 177.5,118.5C 175.167,118.5 172.833,118.5 170.5,118.5C 172.265,117.539 174.265,117.205 176.5,117.5C 176.5,114.167 176.5,110.833 176.5,107.5 Z"/></g>
<g><path style="opacity:1" fill="#17190f" d="M 142.5,115.5 C 147.274,115.988 151.94,116.988 156.5,118.5C 156.833,119 157.167,119.5 157.5,120C 156.277,121.72 155.277,123.553 154.5,125.5C 155.01,127.088 156.01,128.255 157.5,129C 160.482,129.498 163.482,129.665 166.5,129.5C 166.968,134.867 164.468,137.534 159,137.5C 153.877,136.6 149.877,133.933 147,129.5C 145.005,131.747 142.505,132.747 139.5,132.5C 139.321,126.57 140.321,120.903 142.5,115.5 Z"/></g>
<g><path style="opacity:1" fill="#58c07a" d="M 143.5,117.5 C 147.456,117.621 151.122,118.621 154.5,120.5C 150.242,125.179 151.242,128.679 157.5,131C 159.9,131.186 162.234,131.686 164.5,132.5C 163.45,134.873 161.617,135.873 159,135.5C 154.741,134.268 151.241,131.768 148.5,128C 146.149,128.14 143.816,128.64 141.5,129.5C 141.529,125.36 142.196,121.36 143.5,117.5 Z"/></g>
<g><path style="opacity:1" fill="#0c0b09" d="M 206.5,157.5 C 207.338,157.842 207.672,158.508 207.5,159.5C 207.215,161.288 207.548,162.955 208.5,164.5C 210.134,164.968 211.3,165.968 212,167.5C 212.667,178.167 212.667,188.833 212,199.5C 209.056,200.257 206.056,200.923 203,201.5C 201.379,201.275 200.212,200.442 199.5,199C 199.022,196.774 198.355,194.608 197.5,192.5C 196.5,193 195.5,193.5 194.5,194C 170.812,194.864 147.145,194.531 123.5,193C 121.579,192.64 119.912,191.806 118.5,190.5C 117.99,194.846 116.99,199.012 115.5,203C 111.833,203.667 108.167,203.667 104.5,203C 103.773,201.601 103.273,200.101 103,198.5C 102.412,188.82 102.078,179.153 102,169.5C 104.783,167.939 107.617,166.606 110.5,165.5C 110.232,163.901 110.566,162.568 111.5,161.5C 111.057,165.529 112.891,167.529 117,167.5C 117.333,174.167 117.667,180.833 118,187.5C 118.903,188.701 120.069,189.535 121.5,190C 126.416,191.161 131.416,191.827 136.5,192C 155.833,192.667 175.167,192.667 194.5,192C 195.416,191.626 196.25,191.126 197,190.5C 197.167,188.833 197.333,187.167 197.5,185.5C 196.556,178.848 196.39,172.181 197,165.5C 198.865,163.327 201.031,162.993 203.5,164.5C 205.082,162.423 206.082,160.09 206.5,157.5 Z"/></g>
<g><path style="opacity:1" fill="#cec2ab" d="M 106.5,174.5 C 108.924,174.192 111.257,174.526 113.5,175.5C 110.894,176.652 108.227,176.818 105.5,176C 106.056,175.617 106.389,175.117 106.5,174.5 Z"/></g>
<g><path style="opacity:1" fill="#d1c4ae" d="M 201.5,174.5 C 204.247,174.187 206.914,174.52 209.5,175.5C 206.554,176.655 203.554,176.821 200.5,176C 201.056,175.617 201.389,175.117 201.5,174.5 Z"/></g>
<g><path style="opacity:1" fill="#e9d7b3" d="M 122.5,183.5 C 142.28,184.691 161.946,185.858 181.5,187C 163.481,187.743 145.481,187.41 127.5,186C 125.256,185.95 123.589,185.117 122.5,183.5 Z"/></g>
<g><path style="opacity:1" fill="#d0c3ac" d="M 201.5,187.5 C 204.247,187.187 206.914,187.52 209.5,188.5C 208.167,188.833 206.833,189.167 205.5,189.5C 203.667,189.415 202.334,188.748 201.5,187.5 Z"/></g>
<g><path style="opacity:1" fill="#ccbfa9" d="M 106.5,190.5 C 108.924,190.192 111.257,190.526 113.5,191.5C 112.333,191.833 111.167,192.167 110,192.5C 108.319,192.392 107.152,191.725 106.5,190.5 Z"/></g>
</svg>
