<?xml version="1.0" encoding="UTF-8"?>
<!DOCTYPE svg PUBLIC "-//W3C//DTD SVG 1.1//EN" "http://www.w3.org/Graphics/SVG/1.1/DTD/svg11.dtd">
<svg xmlns="http://www.w3.org/2000/svg" version="1.1" width="330px" height="231px" style="shape-rendering:geometricPrecision; text-rendering:geometricPrecision; image-rendering:optimizeQuality; fill-rule:evenodd; clip-rule:evenodd" xmlns:xlink="http://www.w3.org/1999/xlink">
<g><path style="opacity:1" fill="#fefefe" d="M -0.5,-0.5 C 109.5,-0.5 219.5,-0.5 329.5,-0.5C 329.5,76.5 329.5,153.5 329.5,230.5C 219.5,230.5 109.5,230.5 -0.5,230.5C -0.5,153.5 -0.5,76.5 -0.5,-0.5 Z"/></g>
<g><path style="opacity:1" fill="#7d7d7d" d="M 217.5,26.5 C 218.802,28.0276 220.469,29.0276 222.5,29.5C 220.5,29.5 218.5,29.5 216.5,29.5C 216.263,28.209 216.596,27.209 217.5,26.5 Z"/></g>
<g><path style="opacity:1" fill="#565656" d="M 109.5,23.5 C 110.468,25.6074 110.802,27.9407 110.5,30.5C 109.167,30.5 107.833,30.5 106.5,30.5C 107.833,30.5 109.167,30.5 110.5,30.5C 110.802,27.9407 110.468,25.6074 109.5,23.5 Z"/></g>
<g><path style="opacity:1" fill="#110c0c" d="M 217.5,26.5 C 216.596,27.209 216.263,28.209 216.5,29.5C 218.5,29.5 220.5,29.5 222.5,29.5C 229.948,32.7925 234.782,38.4592 237,46.5C 239.333,48.5 241.667,50.5 244,52.5C 244.539,57.1337 242.372,59.467 237.5,59.5C 237.665,62.5184 237.498,65.5184 237,68.5C 228.039,101.342 219.873,134.342 212.5,167.5C 214.903,167.393 216.736,168.393 218,170.5C 218.667,180.833 218.667,191.167 218,201.5C 208.957,207.442 203.957,205.108 203,194.5C 199.733,196.101 196.233,196.934 192.5,197C 172.154,197.624 151.82,197.29 131.5,196C 128.429,195.853 125.596,195.02 123,193.5C 124.53,204.305 120.03,208.472 109.5,206C 108.874,205.25 108.374,204.416 108,203.5C 106.684,192.86 106.35,182.193 107,171.5C 109.135,169.722 111.635,169.055 114.5,169.5C 108.643,132.067 102.143,94.7338 95,57.5C 89.5614,55.2921 88.2281,51.6254 91,46.5C 94.4006,43.3647 97.0673,39.698 99,35.5C 100.857,32.8002 103.357,31.1335 106.5,30.5C 107.833,30.5 109.167,30.5 110.5,30.5C 110.802,27.9407 110.468,25.6074 109.5,23.5C 108.251,21.8639 106.584,20.6972 104.5,20C 101.353,15.952 102.353,13.2854 107.5,12C 145.788,9.1407 184.122,7.80737 222.5,8C 225.2,8.94921 226.033,10.7825 225,13.5C 223.168,15.2883 221.002,16.6216 218.5,17.5C 217.593,20.4212 217.26,23.4212 217.5,26.5 Z"/></g>
<g><path style="opacity:1" fill="#f7424c" d="M 97.5,57.5 C 143.488,58.7653 189.488,59.432 235.5,59.5C 235.665,62.5184 235.498,65.5184 235,68.5C 226.202,101.027 218.035,133.693 210.5,166.5C 207.881,166.232 205.381,166.565 203,167.5C 202.667,176.167 202.333,184.833 202,193.5C 201.25,194.126 200.416,194.626 199.5,195C 181.5,195.667 163.5,195.667 145.5,195C 139.103,194.818 132.77,194.152 126.5,193C 125.069,192.535 123.903,191.701 123,190.5C 122.499,183.484 121.832,176.484 121,169.5C 119.644,168.62 118.144,168.286 116.5,168.5C 110.329,131.481 103.996,94.4808 97.5,57.5 Z"/></g>
<g><path style="opacity:1" fill="#15110c" d="M 147.5,117.5 C 151.796,118.43 156.13,119.263 160.5,120C 161.059,120.725 161.392,121.558 161.5,122.5C 160.296,124.474 159.463,126.474 159,128.5C 159.903,129.701 161.069,130.535 162.5,131C 165.482,131.498 168.482,131.665 171.5,131.5C 171.054,139.121 167.054,141.621 159.5,139C 156.333,137.167 153.833,134.667 152,131.5C 150.005,133.747 147.505,134.747 144.5,134.5C 144.321,128.57 145.321,122.903 147.5,117.5 Z"/></g>
<g><path style="opacity:1" fill="#18120d" d="M 183.5,102.5 C 186.652,101.959 189.152,102.959 191,105.5C 192.062,110.423 192.895,115.423 193.5,120.5C 195.717,121.217 197.051,122.717 197.5,125C 192.414,128.435 187.08,131.601 181.5,134.5C 178.144,130.96 175.144,127.127 172.5,123C 172.82,121.347 173.82,120.347 175.5,120C 177.81,119.503 180.143,119.337 182.5,119.5C 182.663,115.293 182.329,111.126 181.5,107C 181.519,105.167 182.185,103.667 183.5,102.5 Z"/></g>
<g><path style="opacity:1" fill="#eac8b2" d="M 223.5,83.5 C 224.649,83.7911 225.316,84.6244 225.5,86C 222.287,98.3544 219.787,110.854 218,123.5C 217.457,125.631 216.624,127.631 215.5,129.5C 215.167,128.833 214.833,128.167 214.5,127.5C 217.685,112.872 220.685,98.2048 223.5,83.5 Z"/></g>
<g><path style="opacity:1" fill="#56bb78" d="M 148.5,119.5 C 152.119,120.244 155.785,120.577 159.5,120.5C 158.317,123.135 157.484,125.802 157,128.5C 160.179,132.506 164.345,134.506 169.5,134.5C 166.383,137.921 162.716,138.421 158.5,136C 156.654,133.438 154.487,131.271 152,129.5C 150.343,130.484 148.677,131.484 147,132.5C 146.151,127.974 146.651,123.64 148.5,119.5 Z"/></g>
<g><path style="opacity:1" fill="#57bf7a" d="M 184.5,104.5 C 186.39,104.297 187.89,104.963 189,106.5C 190.224,111.386 190.891,116.386 191,121.5C 192.586,122.376 194.086,123.376 195.5,124.5C 191.22,127.224 186.72,129.557 182,131.5C 179.155,128.981 176.655,126.148 174.5,123C 177.619,121.595 180.952,121.095 184.5,121.5C 184.204,115.722 184.204,110.056 184.5,104.5 Z"/></g>
<g><path style="opacity:1" fill="#18120d" d="M 165.5,84.5 C 167.989,84.2978 170.323,84.7978 172.5,86C 176.444,89.7108 178.277,94.2108 178,99.5C 175.463,102.372 172.63,104.872 169.5,107C 168.216,107.684 167.049,107.517 166,106.5C 165.506,104.866 165.34,103.199 165.5,101.5C 162.072,101.547 159.072,102.713 156.5,105C 154.874,107.628 152.874,109.961 150.5,112C 146.663,113 144.663,111.5 144.5,107.5C 147.924,97.9198 154.758,92.5864 165,91.5C 165.497,89.1902 165.663,86.8568 165.5,84.5 Z"/></g>
<g><path style="opacity:1" fill="#eac8b2" d="M 104.5,64.5 C 105.117,64.6107 105.617,64.944 106,65.5C 108.982,81.7091 112.149,97.8758 115.5,114C 115.167,114.833 114.833,115.667 114.5,116.5C 110.52,99.2847 107.186,81.9514 104.5,64.5 Z"/></g>
<g><path style="opacity:1" fill="#58bf7a" d="M 167.5,86.5 C 172.303,88.0409 175.303,91.3743 176.5,96.5C 174.863,100.137 172.196,102.804 168.5,104.5C 167.534,102.604 167.201,100.604 167.5,98.5C 159.954,98.9403 154.288,102.44 150.5,109C 149.207,109.49 147.873,109.657 146.5,109.5C 147.297,102.188 151.297,97.3544 158.5,95C 161.393,93.8512 164.393,93.3512 167.5,93.5C 167.5,91.1667 167.5,88.8333 167.5,86.5 Z"/></g>
<g><path style="opacity:1" fill="#f2404a" d="M 140.5,29.5 C 168.557,28.8757 196.557,29.709 224.5,32C 226.09,33.0458 227.59,34.2125 229,35.5C 231.667,40.1667 234.333,44.8333 237,49.5C 239.391,50.4291 241.225,51.9291 242.5,54C 242.241,55.2613 241.574,56.2613 240.5,57C 227,57.1667 213.5,57.3333 200,57.5C 165.124,57.4006 130.291,56.5673 95.5,55C 92.1247,53.9705 90.9581,51.8039 92,48.5C 96.2866,43.4248 100.453,38.2582 104.5,33C 116.617,31.7799 128.617,30.6133 140.5,29.5 Z"/></g>
<g><path style="opacity:1" fill="#6c1c21" d="M 104.5,44.5 C 106.265,45.4614 108.265,45.7947 110.5,45.5C 108.307,46.7969 105.973,46.7969 103.5,45.5C 103.624,44.8933 103.957,44.56 104.5,44.5 Z"/></g>
<g><path style="opacity:1" fill="#200c0a" d="M 110.5,45.5 C 108.265,45.7947 106.265,45.4614 104.5,44.5C 128.314,42.9695 152.314,42.3028 176.5,42.5C 193.5,42.8333 210.5,43.1667 227.5,43.5C 188.497,44.25 149.497,44.9167 110.5,45.5 Z"/></g>
<g><path style="opacity:1" fill="#8e8e8e" d="M 206.5,24.5 C 207.434,25.5676 207.768,26.901 207.5,28.5C 204.615,28.8064 201.948,28.4731 199.5,27.5C 201.833,27.5 204.167,27.5 206.5,27.5C 206.5,26.5 206.5,25.5 206.5,24.5 Z"/></g>
<g><path style="opacity:1" fill="#fafafa" d="M 206.5,24.5 C 206.5,25.5 206.5,26.5 206.5,27.5C 204.167,27.5 201.833,27.5 199.5,27.5C 172.827,27.4525 146.161,27.7858 119.5,28.5C 119.232,25.8806 119.565,23.3806 120.5,21C 148.42,17.9128 176.42,16.9128 204.5,18C 206.016,19.897 206.683,22.0637 206.5,24.5 Z"/></g>
<g><path style="opacity:1" fill="#c5b9a4" d="M 110.5,177.5 C 113.187,177.336 115.854,177.503 118.5,178C 117.228,179.046 115.728,179.546 114,179.5C 112.319,179.392 111.152,178.725 110.5,177.5 Z"/></g>
<g><path style="opacity:1" fill="#d4c7b0" d="M 206.5,177.5 C 209.247,177.187 211.914,177.52 214.5,178.5C 213.167,178.833 211.833,179.167 210.5,179.5C 208.667,179.415 207.334,178.748 206.5,177.5 Z"/></g>
<g><path style="opacity:1" fill="#e9cbb4" d="M 127.5,185.5 C 147.088,187.739 166.754,189.073 186.5,189.5C 166.787,190.906 147.12,190.406 127.5,188C 126.402,187.23 126.402,186.397 127.5,185.5 Z"/></g>
<g><path style="opacity:1" fill="#b1a693" d="M 207.5,190.5 C 210.247,190.187 212.914,190.52 215.5,191.5C 214.167,191.833 212.833,192.167 211.5,192.5C 209.667,192.415 208.334,191.748 207.5,190.5 Z"/></g>
<g><path style="opacity:1" fill="#dacdb5" d="M 111.5,193.5 C 113.527,193.338 115.527,193.505 117.5,194C 115.03,196.014 113.03,195.847 111.5,193.5 Z"/></g>
</svg>
