<svg width="546" height="555" viewBox="0 0 546 555" fill="none" xmlns="http://www.w3.org/2000/svg">
<mask id="mask0_510_73108" style="mask-type:luminance" maskUnits="userSpaceOnUse" x="211" y="133" width="219" height="46">
<path d="M249.676 171.591C249.676 171.591 266.719 152.047 291.581 152.047C291.581 152.047 292.407 136.881 309.374 133.603C326.341 130.325 329.632 145.478 329.632 145.478C329.632 145.478 342.145 138.821 359.012 145.478C375.879 152.134 372.425 171.529 372.425 171.529C372.425 171.529 421 169.952 429.333 178.849H211.05C211.05 178.849 215.454 167.963 249.676 171.591Z" fill="white"/>
</mask>
<g mask="url(#mask0_510_73108)">
<path opacity="0.5" d="M249.676 171.591C249.676 171.591 266.719 152.047 291.581 152.047C291.581 152.047 292.407 136.881 309.374 133.603C326.341 130.325 329.632 145.478 329.632 145.478C329.632 145.478 342.145 138.821 359.012 145.478C375.879 152.134 372.425 171.529 372.425 171.529C372.425 171.529 421 169.952 429.333 178.849H211.05C211.05 178.849 215.454 167.963 249.676 171.591Z" stroke="#263238" stroke-linecap="round" stroke-linejoin="round"/>
</g>
<path d="M249.676 171.591C249.676 171.591 266.719 152.047 291.581 152.047C291.581 152.047 292.407 136.881 309.374 133.603C326.341 130.325 329.632 145.478 329.632 145.478C329.632 145.478 342.145 138.821 359.012 145.478C375.879 152.134 372.425 171.529 372.425 171.529C372.425 171.529 421 169.952 429.333 178.849H211.05C211.05 178.849 215.454 167.963 249.676 171.591Z" stroke="#263238" stroke-linecap="round" stroke-linejoin="round"/>
<mask id="mask1_510_73108" style="mask-type:luminance" maskUnits="userSpaceOnUse" x="247" y="25" width="175" height="37">
<path d="M390.506 55.7124C390.506 55.7124 376.905 40.1342 357.085 40.1342C357.085 40.1342 356.422 28.0344 342.896 25.4193C329.369 22.8042 326.729 34.8914 326.729 34.8914C326.729 34.8914 316.719 29.586 303.306 34.8914C289.892 40.1967 292.595 55.6749 292.595 55.6749C292.595 55.6749 253.806 54.4236 247.211 61.5058H421.312C421.312 61.5058 417.796 52.822 390.506 55.7124Z" fill="white"/>
</mask>
<g mask="url(#mask1_510_73108)">
<path opacity="0.5" d="M390.506 55.7124C390.506 55.7124 376.905 40.1342 357.085 40.1342C357.085 40.1342 356.422 28.0344 342.896 25.4193C329.369 22.8042 326.729 34.8914 326.729 34.8914C326.729 34.8914 316.719 29.586 303.306 34.8914C289.892 40.1967 292.595 55.6749 292.595 55.6749C292.595 55.6749 253.806 54.4236 247.211 61.5058H421.312C421.312 61.5058 417.796 52.822 390.506 55.7124Z" stroke="#263238" stroke-linecap="round" stroke-linejoin="round"/>
</g>
<path d="M390.506 55.7124C390.506 55.7124 376.905 40.1342 357.085 40.1342C357.085 40.1342 356.422 28.0344 342.896 25.4193C329.369 22.8042 326.729 34.8914 326.729 34.8914C326.729 34.8914 316.719 29.586 303.306 34.8914C289.892 40.1967 292.595 55.6749 292.595 55.6749C292.595 55.6749 253.806 54.4236 247.211 61.5058H421.312C421.312 61.5058 417.796 52.822 390.506 55.7124Z" stroke="#263238" stroke-linecap="round" stroke-linejoin="round"/>
<mask id="mask2_510_73108" style="mask-type:luminance" maskUnits="userSpaceOnUse" x="56" y="91" width="105" height="23">
<path d="M74.8997 109.855C74.8997 109.855 82.9704 100.596 94.7573 100.596C94.9791 98.4045 95.9293 96.3507 97.4559 94.7629C98.9825 93.1751 100.997 92.1449 103.178 91.837C111.211 90.2855 112.775 97.4552 112.775 97.4552C114.972 96.5048 117.339 96.0145 119.733 96.0145C122.126 96.0145 124.493 96.5048 126.69 97.4552C134.673 100.608 133.059 109.805 133.059 109.805C133.059 109.805 156.057 109.054 160.011 113.271H56.6062C56.6062 113.271 58.6833 108.129 74.8997 109.855Z" fill="white"/>
</mask>
<g mask="url(#mask2_510_73108)">
<path opacity="0.5" d="M74.8997 109.855C74.8997 109.855 82.9704 100.596 94.7573 100.596C94.9791 98.4045 95.9293 96.3507 97.4559 94.7629C98.9825 93.1751 100.997 92.1449 103.178 91.837C111.211 90.2855 112.775 97.4552 112.775 97.4552C114.972 96.5048 117.339 96.0145 119.733 96.0145C122.126 96.0145 124.493 96.5048 126.69 97.4552C134.673 100.608 133.059 109.805 133.059 109.805C133.059 109.805 156.057 109.054 160.011 113.271H56.6062C56.6062 113.271 58.6833 108.129 74.8997 109.855Z" stroke="#263238" stroke-linecap="round" stroke-linejoin="round"/>
</g>
<path d="M74.8997 109.855C74.8997 109.855 82.9704 100.596 94.7573 100.596C94.9791 98.4045 95.9293 96.3507 97.4559 94.7629C98.9825 93.1751 100.997 92.1449 103.178 91.837C111.211 90.2855 112.775 97.4552 112.775 97.4552C114.972 96.5048 117.339 96.0145 119.733 96.0145C122.126 96.0145 124.493 96.5048 126.69 97.4552C134.673 100.608 133.059 109.805 133.059 109.805C133.059 109.805 156.057 109.054 160.011 113.271H56.6062C56.6062 113.271 58.6833 108.129 74.8997 109.855Z" stroke="#263238" stroke-linecap="round" stroke-linejoin="round"/>
<mask id="mask3_510_73108" style="mask-type:luminance" maskUnits="userSpaceOnUse" x="180" y="305" width="104" height="23">
<path d="M198.55 323.834C198.55 323.834 206.62 314.575 218.407 314.575C218.627 312.382 219.576 310.328 221.103 308.739C222.63 307.151 224.646 306.122 226.828 305.816C234.861 304.289 236.438 311.421 236.438 311.421C238.634 310.471 241.002 309.981 243.395 309.981C245.788 309.981 248.156 310.471 250.352 311.421C258.335 314.562 256.721 323.771 256.721 323.771C256.721 323.771 279.719 323.021 283.673 327.237H180.256C180.256 327.237 182.333 322.107 198.55 323.834Z" fill="white"/>
</mask>
<g mask="url(#mask3_510_73108)">
<path opacity="0.5" d="M198.55 323.834C198.55 323.834 206.62 314.575 218.407 314.575C218.627 312.382 219.576 310.328 221.103 308.739C222.63 307.151 224.646 306.122 226.828 305.816C234.861 304.289 236.438 311.421 236.438 311.421C238.634 310.471 241.002 309.981 243.395 309.981C245.788 309.981 248.156 310.471 250.352 311.421C258.335 314.562 256.721 323.771 256.721 323.771C256.721 323.771 279.719 323.021 283.673 327.237H180.256C180.256 327.237 182.333 322.107 198.55 323.834Z" stroke="#263238" stroke-linecap="round" stroke-linejoin="round"/>
</g>
<path d="M198.55 323.834C198.55 323.834 206.62 314.575 218.407 314.575C218.627 312.382 219.576 310.328 221.103 308.739C222.63 307.151 224.646 306.122 226.828 305.816C234.861 304.289 236.438 311.421 236.438 311.421C238.634 310.471 241.002 309.981 243.395 309.981C245.788 309.981 248.156 310.471 250.352 311.421C258.335 314.562 256.721 323.771 256.721 323.771C256.721 323.771 279.719 323.021 283.673 327.237H180.256C180.256 327.237 182.333 322.107 198.55 323.834Z" stroke="#263238" stroke-linecap="round" stroke-linejoin="round"/>
<path d="M105.568 206.463L105.443 186.944C105.397 186.27 105.097 185.639 104.603 185.178C104.11 184.717 103.459 184.461 102.784 184.461C102.109 184.461 101.459 184.717 100.965 185.178C100.472 185.639 100.171 186.27 100.125 186.944V193.338" stroke="#263238" stroke-linecap="round" stroke-linejoin="round"/>
<path d="M99.9751 211.682L99.925 218.851" stroke="#263238" stroke-linecap="round" stroke-linejoin="round"/>
<path d="M106.682 379.852L105.693 226.209" stroke="#263238" stroke-linecap="round" stroke-linejoin="round"/>
<path d="M99.8376 232.352L98.8992 379.851" stroke="#263238" stroke-linecap="round" stroke-linejoin="round"/>
<path d="M170.121 220.077L113.301 207.952L110.173 212.357L107.908 212.119L83.8714 154.561C83.7077 154.165 83.3981 153.848 83.0068 153.675C82.6155 153.502 82.1726 153.487 81.7701 153.632C81.3675 153.776 81.0362 154.071 80.845 154.454C80.6538 154.836 80.6174 155.278 80.7432 155.687L97.36 211.368L102.728 211.981L103.579 214.021L65.4903 263.533C65.257 263.871 65.1566 264.283 65.2084 264.69C65.2601 265.097 65.4603 265.47 65.7705 265.738C66.0808 266.007 66.4792 266.151 66.8894 266.144C67.2995 266.136 67.6925 265.978 67.9928 265.698L108.108 223.656L105.981 218.651L107.395 216.824L169.621 223.38C169.837 223.413 170.059 223.403 170.272 223.35C170.485 223.298 170.685 223.204 170.862 223.074C171.038 222.943 171.188 222.78 171.301 222.592C171.414 222.404 171.49 222.196 171.522 221.979C171.555 221.762 171.545 221.541 171.493 221.328C171.44 221.115 171.346 220.914 171.216 220.738C171.086 220.561 170.922 220.412 170.734 220.299C170.546 220.185 170.338 220.11 170.121 220.077Z" stroke="#263238" stroke-linecap="round" stroke-linejoin="round"/>
<path d="M106.682 215.736C107.58 215.736 108.308 215.007 108.308 214.109C108.308 213.211 107.58 212.482 106.682 212.482C105.783 212.482 105.055 213.211 105.055 214.109C105.055 215.007 105.783 215.736 106.682 215.736Z" stroke="#263238" stroke-linecap="round" stroke-linejoin="round"/>
<path d="M157.884 273.944L157.784 258.491C157.784 257.933 157.562 257.399 157.168 257.004C156.774 256.61 156.239 256.389 155.681 256.389C155.124 256.389 154.589 256.61 154.195 257.004C153.801 257.399 153.579 257.933 153.579 258.491V263.558" stroke="#263238" stroke-linecap="round" stroke-linejoin="round"/>
<path d="M153.454 278.074L153.417 283.73" stroke="#263238" stroke-linecap="round" stroke-linejoin="round"/>
<path d="M158.76 411.096L157.984 289.561" stroke="#263238" stroke-linecap="round" stroke-linejoin="round"/>
<path d="M153.354 294.414L152.603 411.095" stroke="#263238" stroke-linecap="round" stroke-linejoin="round"/>
<path d="M208.985 284.742L164.027 275.133L161.525 278.624L159.723 278.436L140.716 232.89C140.658 232.725 140.565 232.574 140.445 232.447C140.325 232.32 140.179 232.22 140.018 232.153C139.856 232.085 139.682 232.053 139.507 232.057C139.332 232.061 139.16 232.102 139.002 232.177C138.701 232.305 138.458 232.538 138.317 232.833C138.176 233.128 138.149 233.464 138.239 233.778L151.39 277.823L155.631 278.311L156.307 279.925L126.152 319.065C125.924 319.33 125.812 319.675 125.839 320.023C125.866 320.372 126.03 320.695 126.295 320.923C126.561 321.15 126.906 321.263 127.254 321.236C127.603 321.209 127.926 321.044 128.154 320.779L159.873 287.52L158.196 283.591L159.31 282.14L208.535 287.32C208.708 287.348 208.885 287.34 209.055 287.295C209.224 287.251 209.383 287.171 209.52 287.061C209.657 286.952 209.769 286.814 209.849 286.658C209.93 286.503 209.976 286.331 209.986 286.156C210.019 285.839 209.936 285.521 209.752 285.261C209.568 285.001 209.295 284.817 208.985 284.742Z" stroke="#263238" stroke-linecap="round" stroke-linejoin="round"/>
<path d="M160.111 279.988C160.111 280.235 160.038 280.477 159.9 280.683C159.763 280.889 159.567 281.049 159.339 281.144C159.11 281.238 158.858 281.263 158.616 281.215C158.373 281.167 158.15 281.047 157.975 280.872C157.8 280.697 157.681 280.474 157.632 280.232C157.584 279.989 157.609 279.737 157.704 279.509C157.798 279.28 157.959 279.085 158.164 278.947C158.37 278.81 158.612 278.736 158.86 278.736C159.192 278.736 159.51 278.868 159.744 279.103C159.979 279.337 160.111 279.656 160.111 279.988Z" stroke="#263238" stroke-linecap="round" stroke-linejoin="round"/>
<path d="M432.374 206.463L432.499 186.944C432.545 186.27 432.845 185.639 433.339 185.178C433.833 184.717 434.483 184.461 435.158 184.461C435.833 184.461 436.483 184.717 436.977 185.178C437.47 185.639 437.771 186.27 437.817 186.944V193.338" stroke="#263238" stroke-linecap="round" stroke-linejoin="round"/>
<path d="M437.967 211.682L438.017 218.851" stroke="#263238" stroke-linecap="round" stroke-linejoin="round"/>
<path d="M431.26 379.852L432.248 226.209" stroke="#263238" stroke-linecap="round" stroke-linejoin="round"/>
<path d="M438.104 232.352L439.043 379.851" stroke="#263238" stroke-linecap="round" stroke-linejoin="round"/>
<path d="M367.821 220.077L424.641 207.952L427.769 212.357L430.034 212.119L454.071 154.561C454.234 154.165 454.544 153.848 454.935 153.675C455.326 153.502 455.769 153.487 456.172 153.632C456.574 153.776 456.906 154.071 457.097 154.454C457.288 154.836 457.325 155.278 457.199 155.687L440.582 211.368L435.214 211.981L434.363 214.021L472.489 263.508C472.722 263.846 472.823 264.258 472.771 264.665C472.719 265.071 472.519 265.445 472.209 265.713C471.899 265.982 471.5 266.126 471.09 266.119C470.68 266.111 470.287 265.953 469.987 265.673L429.871 223.631L431.998 218.626L430.584 216.799L368.359 223.355C367.937 223.398 367.515 223.279 367.179 223.021C366.842 222.764 366.616 222.387 366.548 221.969C366.479 221.551 366.573 221.122 366.809 220.771C367.046 220.419 367.408 220.171 367.821 220.077Z" stroke="#263238" stroke-linecap="round" stroke-linejoin="round"/>
<path d="M431.26 215.736C432.158 215.736 432.887 215.007 432.887 214.109C432.887 213.211 432.158 212.482 431.26 212.482C430.362 212.482 429.633 213.211 429.633 214.109C429.633 215.007 430.362 215.736 431.26 215.736Z" stroke="#263238" stroke-linecap="round" stroke-linejoin="round"/>
<path d="M380.058 273.944L380.158 258.491C380.158 257.933 380.38 257.399 380.774 257.004C381.168 256.61 381.703 256.389 382.261 256.389C382.818 256.389 383.353 256.61 383.747 257.004C384.141 257.399 384.363 257.933 384.363 258.491V263.558" stroke="#263238" stroke-linecap="round" stroke-linejoin="round"/>
<path d="M384.488 278.074L384.525 283.73" stroke="#263238" stroke-linecap="round" stroke-linejoin="round"/>
<path d="M379.182 411.096L379.958 289.561" stroke="#263238" stroke-linecap="round" stroke-linejoin="round"/>
<path d="M384.588 294.414L385.339 411.095" stroke="#263238" stroke-linecap="round" stroke-linejoin="round"/>
<path d="M328.957 284.742L373.915 275.133L376.417 278.624L378.219 278.436L397.226 232.89C397.284 232.725 397.377 232.574 397.497 232.447C397.617 232.32 397.763 232.22 397.925 232.153C398.086 232.085 398.26 232.053 398.435 232.057C398.61 232.061 398.782 232.102 398.94 232.177C399.241 232.305 399.484 232.538 399.625 232.833C399.766 233.128 399.794 233.464 399.703 233.778L386.553 277.823L382.311 278.311L381.635 279.925L411.791 319.065C412.018 319.33 412.13 319.675 412.103 320.023C412.076 320.372 411.912 320.695 411.647 320.923C411.381 321.15 411.036 321.263 410.688 321.236C410.339 321.209 410.016 321.044 409.789 320.779L378.069 287.52L379.746 283.591L378.632 282.14L329.407 287.32C329.234 287.348 329.057 287.34 328.887 287.295C328.718 287.251 328.559 287.171 328.422 287.061C328.285 286.952 328.173 286.814 328.093 286.658C328.012 286.503 327.966 286.331 327.956 286.156C327.923 285.839 328.006 285.521 328.19 285.261C328.374 285.001 328.647 284.817 328.957 284.742Z" stroke="#263238" stroke-linecap="round" stroke-linejoin="round"/>
<path d="M377.894 279.988C377.894 280.235 377.967 280.477 378.104 280.683C378.242 280.889 378.437 281.049 378.666 281.144C378.895 281.238 379.146 281.263 379.389 281.215C379.632 281.167 379.855 281.047 380.03 280.872C380.205 280.697 380.324 280.474 380.372 280.232C380.42 279.989 380.396 279.737 380.301 279.509C380.206 279.28 380.046 279.085 379.84 278.947C379.634 278.81 379.392 278.736 379.145 278.736C378.813 278.736 378.495 278.868 378.26 279.103C378.025 279.337 377.894 279.656 377.894 279.988Z" stroke="#263238" stroke-linecap="round" stroke-linejoin="round"/>
<path d="M1 361.609C1 361.609 3.42745 368.015 11.0101 377.875C20.8075 390.713 39.3262 409.394 72.5223 427.313C131.082 458.97 168.144 511.573 168.144 511.573L202.216 402.975C202.216 402.975 187.063 401.874 165.742 386.709C151.189 376.486 133.834 359.694 116.492 332.392C73.5984 264.936 28.728 250.309 28.728 250.309" fill="white"/>
<mask id="mask4_510_73108" style="mask-type:luminance" maskUnits="userSpaceOnUse" x="1" y="250" width="202" height="262">
<path d="M1 361.609C1 361.609 3.42745 368.015 11.0101 377.875C20.8075 390.713 39.3262 409.394 72.5223 427.313C131.082 458.97 168.144 511.573 168.144 511.573L202.216 402.975C202.216 402.975 187.063 401.874 165.742 386.709C151.189 376.486 133.834 359.694 116.492 332.392C73.5984 264.936 28.728 250.309 28.728 250.309" fill="white"/>
</mask>
<g mask="url(#mask4_510_73108)">
<path opacity="0.4" d="M10.9727 377.875C20.8076 390.713 39.3263 409.394 72.5224 427.312C131.082 458.969 168.144 511.573 168.144 511.573L202.216 402.975C202.216 402.975 187.063 401.874 165.742 386.709C148.286 386.233 112.1 398.083 93.6187 415.938C93.5562 415.964 50.863 394.317 10.9727 377.875Z" fill="#92E3A9"/>
<path d="M123.636 401.25C123.636 401.25 144.47 419.243 156.169 419.831" stroke="#263238" stroke-linecap="round" stroke-linejoin="round"/>
<path d="M62.5122 422.107C77.3647 429.327 99.1492 437.398 107.07 441.527" stroke="#263238" stroke-linecap="round" stroke-linejoin="round"/>
<path d="M119.47 337.26C123.499 345.585 128.251 353.54 133.672 361.034" stroke="#263238" stroke-linecap="round" stroke-linejoin="round"/>
</g>
<path d="M1 361.609C1 361.609 3.42745 368.015 11.0101 377.875C20.8075 390.713 39.3262 409.394 72.5223 427.313C131.082 458.97 168.144 511.573 168.144 511.573L202.216 402.975C202.216 402.975 187.063 401.874 165.742 386.709C151.189 376.486 133.834 359.694 116.492 332.392C73.5984 264.936 28.728 250.309 28.728 250.309" stroke="#263238" stroke-linecap="round" stroke-linejoin="round"/>
<path d="M545 351.598C545 351.598 542.573 358.005 534.99 367.865C525.155 380.703 506.636 399.384 473.503 417.302C414.943 448.959 377.881 501.563 377.881 501.563L343.809 392.965C343.809 392.965 358.962 391.864 380.283 376.699C394.773 366.413 412.116 349.659 429.471 322.356C472.364 254.901 517.247 240.273 517.247 240.273" fill="white"/>
<mask id="mask5_510_73108" style="mask-type:luminance" maskUnits="userSpaceOnUse" x="343" y="240" width="202" height="262">
<path d="M545 351.598C545 351.598 542.573 358.005 534.99 367.865C525.155 380.703 506.636 399.384 473.503 417.302C414.943 448.959 377.881 501.563 377.881 501.563L343.809 392.965C343.809 392.965 358.962 391.864 380.283 376.699C394.773 366.413 412.116 349.659 429.471 322.356C472.364 254.901 517.247 240.273 517.247 240.273" fill="white"/>
</mask>
<g mask="url(#mask5_510_73108)">
<path opacity="0.4" d="M535.027 367.863C525.193 380.701 506.674 399.383 473.54 417.301C414.981 448.958 377.919 501.561 377.919 501.561L343.847 392.964C343.847 392.964 358.999 391.863 380.321 376.697C397.776 376.222 428.845 384.28 444.423 409.23C444.423 409.243 495.137 384.305 535.027 367.863Z" fill="#92E3A9"/>
<path d="M400.892 372.457C400.892 372.457 390.719 388.986 364.43 399.359" stroke="#263238" stroke-linecap="round" stroke-linejoin="round"/>
<path d="M479.834 414.686C473.578 417.301 447.652 425.446 441.708 429.613" stroke="#263238" stroke-linecap="round" stroke-linejoin="round"/>
<path d="M429.833 334.781C429.833 334.781 435.752 313.509 444.423 300.621" stroke="#263238" stroke-linecap="round" stroke-linejoin="round"/>
</g>
<path d="M545 351.598C545 351.598 542.573 358.005 534.99 367.865C525.155 380.703 506.636 399.384 473.503 417.302C414.943 448.959 377.881 501.563 377.881 501.563L343.809 392.965C343.809 392.965 358.962 391.864 380.283 376.699C394.773 366.413 412.116 349.659 429.471 322.356C472.364 254.901 517.247 240.273 517.247 240.273" stroke="#263238" stroke-linecap="round" stroke-linejoin="round"/>
<path d="M229.957 428.963L193.382 433.355C193.382 433.355 167.844 441.137 161.675 446.681C155.506 452.224 147.398 467.089 147.398 467.089C147.398 467.089 138.414 468.79 133.809 467.089C133.293 466.947 132.811 466.698 132.395 466.36C131.98 466.022 131.639 465.601 131.394 465.124C130.807 463.727 130.387 462.265 130.143 460.77C129.49 456.087 129.423 451.342 129.943 446.643C129.943 446.643 123.937 438.059 123.687 434.543C123.436 431.027 124.713 416.538 128.341 412.483C128.488 412.309 128.651 412.15 128.829 412.008C132.833 408.805 155.681 398.644 155.681 398.644C155.681 398.644 160.824 390.924 173.399 388.634C185.975 386.345 213.114 394.353 213.114 394.353L217.056 402.436L229.957 428.963Z" fill="white"/>
<path opacity="0.4" d="M130.168 460.808C129.515 456.125 129.448 451.38 129.968 446.681C129.968 446.681 123.962 438.097 123.711 434.581C123.461 431.065 124.738 416.576 128.366 412.521C124.162 420.905 125 433.68 130.869 429.614C138.013 424.609 145.383 434.794 145.383 434.794C137.588 438.836 131.882 452.612 130.168 460.808Z" fill="#92E3A9"/>
<path opacity="0.4" d="M229.957 428.964L193.382 433.356C193.382 433.356 167.844 441.138 161.675 446.681C155.506 452.225 147.398 467.09 147.398 467.09C147.398 467.09 138.414 468.791 133.809 467.09C138.039 465.838 144.17 461.084 145.333 454.715C146.985 445.655 162.238 437.497 161.662 430.478C161.087 423.458 149.388 412.009 149.388 412.009C156.245 410.52 162.426 414.787 162.426 414.787C159.771 411.583 156.624 408.821 153.104 406.603C166.53 405.152 169.108 414.649 169.108 414.649C172.861 415.487 181.62 412.009 181.62 412.009C181.665 408.609 182.629 405.284 184.41 402.387L188.765 409.206C193.507 409.206 209.423 404.677 216.993 402.437L229.957 428.964Z" fill="#92E3A9"/>
<path d="M131.394 465.176C133.359 469.743 147.385 467.103 147.385 467.103C147.385 467.103 155.506 452.225 161.675 446.682C167.844 441.139 193.382 433.343 193.382 433.343L229.956 428.964L213.102 394.391C213.102 394.391 185.962 386.396 173.387 388.686C160.811 390.976 155.669 398.696 155.669 398.696C155.669 398.696 132.821 408.844 128.817 412.059C124.813 415.275 123.386 431.066 123.674 434.582C123.962 438.098 129.93 446.682 129.93 446.682C129.93 446.682 128.529 458.531 131.394 465.176Z" stroke="#263238" stroke-linecap="round" stroke-linejoin="round"/>
<path d="M131.957 462.097C131.957 462.097 134.247 449.246 145.108 444.579C145.108 444.579 146.247 436.921 143.394 433.393C140.541 429.864 132.245 436.721 131.957 444.579C131.67 452.437 131.957 462.097 131.957 462.097Z" stroke="#263238" stroke-linecap="round" stroke-linejoin="round"/>
<path d="M155.669 414.688C155.669 414.688 174.726 423.246 164.766 444.53" stroke="#263238" stroke-linecap="round" stroke-linejoin="round"/>
<path d="M162.426 410.684C162.426 410.684 178.617 424.648 166.718 442.228" stroke="#263238" stroke-linecap="round" stroke-linejoin="round"/>
<path d="M184.461 407.842C183.549 414.015 183.549 420.288 184.461 426.461" stroke="#263238" stroke-linecap="round" stroke-linejoin="round"/>
<path d="M136.537 429.615C136.537 429.615 133.109 431.254 130.819 439.826" stroke="#263238" stroke-linecap="round" stroke-linejoin="round"/>
<path d="M133.672 414.688C133.672 414.688 128.817 415.351 126.252 424.96" stroke="#263238" stroke-linecap="round" stroke-linejoin="round"/>
<path d="M415.094 428.964C411.089 431.529 408.975 436.922 408.975 436.922C408.975 436.922 409.726 446.682 408.975 449.247C408.224 451.812 402.794 456.68 398.502 453.964C394.21 451.249 392.008 441.252 380.896 436.922L311.389 409.244C313.746 405.91 316.559 402.924 319.747 400.373C324.876 396.142 330.596 392.685 336.727 390.112C354.795 382.392 376.767 377.537 387.516 380.966C393.547 382.905 400.817 389.649 406.422 396.294C410.752 401.411 414.08 406.504 415.094 409.244C417.371 415.538 419.123 426.387 415.094 428.964Z" fill="white"/>
<path opacity="0.4" d="M415.094 428.963C411.089 431.528 408.975 436.921 408.975 436.921C408.975 436.921 409.726 446.681 408.975 449.246C408.224 451.811 402.794 456.679 398.502 453.964C394.21 451.248 392.008 441.251 380.896 436.921L311.389 409.243C313.746 405.91 316.559 402.923 319.747 400.372C329.269 400.372 341.807 401.273 352.08 405.527C352.08 405.527 351.379 397.807 355.383 398.683C355.383 398.683 354.37 390.875 358.687 390.487C363.003 390.099 361.99 392.99 361.99 392.99C361.99 392.99 361.99 400.86 365.481 402.449C368.972 404.038 366.92 393.177 373.627 391.663C373.627 391.663 374.002 403.901 377.931 407.867C377.931 407.867 373.464 420.768 379.558 427.162C385.651 433.556 397.075 441.176 399.578 440.925C402.08 440.675 392.846 429.539 392.846 429.539C392.846 429.539 393.021 418.19 400.028 415.963C407.035 413.735 413.129 419.441 413.129 419.441C412.069 411.438 409.826 403.637 406.472 396.293C410.802 401.411 414.13 406.503 415.144 409.243C417.371 415.537 419.123 426.386 415.094 428.963Z" fill="#92E3A9"/>
<path d="M311.376 409.243C311.376 409.243 318.646 397.819 336.727 390.111C354.808 382.403 376.767 377.536 387.516 380.964C398.264 384.393 412.804 402.961 415.043 409.243C417.283 415.524 419.048 426.385 415.043 428.963C411.039 431.54 408.937 436.908 408.937 436.908C408.937 436.908 409.688 446.681 408.937 449.246C408.187 451.811 402.756 456.678 398.477 453.963C394.197 451.248 391.97 441.25 380.859 436.908" stroke="#263238" stroke-linecap="round" stroke-linejoin="round"/>
<path d="M392.846 429.54C392.846 429.54 393.71 418.391 399.103 418.967C404.495 419.542 408.6 431.254 408.988 444.53C408.975 444.53 403.094 432.968 392.846 429.54Z" stroke="#263238" stroke-linecap="round" stroke-linejoin="round"/>
<path d="M375.091 433.342C375.091 433.342 368.834 413.247 382.223 405.539" stroke="#263238" stroke-linecap="round" stroke-linejoin="round"/>
<path d="M373.614 394.391C373.614 394.391 368.434 411.633 373.614 421.293C373.614 421.293 361.377 412.109 352.093 416.1" stroke="#263238" stroke-linecap="round" stroke-linejoin="round"/>
<path d="M362.816 415.963C362.816 415.963 361.052 409.244 361.339 405.54C361.627 401.836 356.672 397.532 358.574 392.965" stroke="#263238" stroke-linecap="round" stroke-linejoin="round"/>
<path d="M355.371 401.248C355.371 401.248 359.462 410.557 361.99 412.046" stroke="#263238" stroke-linecap="round" stroke-linejoin="round"/>
<path d="M364.43 423.245C364.43 423.245 369.585 420.967 373.627 423.245" stroke="#263238" stroke-linecap="round" stroke-linejoin="round"/>
<path d="M404.233 406.653C404.233 406.653 412.516 405.952 414.518 422.744" stroke="#263238" stroke-linecap="round" stroke-linejoin="round"/>
<path d="M282.46 286.094C282.46 286.094 262.527 274.607 278.856 233.103C295.185 191.598 344.272 179.011 355.371 166.498C355.371 166.498 350.891 293.964 282.46 286.094Z" fill="#92E3A9"/>
<mask id="mask6_510_73108" style="mask-type:luminance" maskUnits="userSpaceOnUse" x="272" y="166" width="84" height="121">
<path d="M282.46 286.094C282.46 286.094 262.527 274.607 278.856 233.103C295.185 191.598 344.272 179.011 355.371 166.498C355.371 166.498 350.891 293.964 282.46 286.094Z" fill="white"/>
</mask>
<g mask="url(#mask6_510_73108)">
<path opacity="0.3" d="M346.674 178.41C341.069 189.058 323.814 202.497 304.857 234.83C295.587 251.002 287.87 268.016 281.809 285.644C278.793 283.416 266.594 272.155 275.828 241.849C276.191 252.61 280.007 258.654 280.007 258.654C278.806 216.799 346.674 178.41 346.674 178.41Z" fill="black" fill-opacity="0.7"/>
</g>
<path d="M282.46 286.094C282.46 286.094 262.527 274.607 278.856 233.103C295.185 191.598 344.272 179.011 355.371 166.498C355.371 166.498 350.891 293.964 282.46 286.094Z" stroke="#263238" stroke-linecap="round" stroke-linejoin="round"/>
<path d="M284.299 234.83C284.299 234.83 281.196 257.015 288.328 271.467L291.894 262.22C291.894 262.22 316.644 261.557 329.507 245.716" stroke="#263238" stroke-linecap="round" stroke-linejoin="round"/>
<path d="M297.838 216.023C297.838 216.023 292.219 236.807 296.186 251.334L297.838 244.077C297.838 244.077 328.856 236.044 335.451 226.472" stroke="#263238" stroke-linecap="round" stroke-linejoin="round"/>
<path d="M313.904 202.561C313.904 202.561 306.396 218.064 306.571 230.939L310.238 224.683C310.238 224.683 336.439 219.678 341.069 211.482" stroke="#263238" stroke-linecap="round" stroke-linejoin="round"/>
<path d="M329.507 189.172C324.039 196.679 317.545 213.634 317.545 213.634L323.526 206.827C323.526 206.827 338.316 202.973 343.846 195.754" stroke="#263238" stroke-linecap="round" stroke-linejoin="round"/>
<path d="M258.698 395.568C258.698 395.568 267.207 245.717 339.417 189.109C339.417 189.109 272.424 244.453 268.971 395.568H258.698Z" fill="#92E3A9"/>
<mask id="mask7_510_73108" style="mask-type:luminance" maskUnits="userSpaceOnUse" x="258" y="189" width="82" height="207">
<path d="M258.698 395.568C258.698 395.568 267.207 245.717 339.417 189.109C339.417 189.109 272.424 244.453 268.971 395.568H258.698Z" fill="white"/>
</mask>
<g mask="url(#mask7_510_73108)">
<path opacity="0.3" d="M258.698 395.568C258.698 395.568 267.207 245.717 339.417 189.109C339.417 189.109 272.424 244.453 268.971 395.568H258.698Z" fill="black" fill-opacity="0.7"/>
</g>
<path d="M258.698 395.568C258.698 395.568 267.207 245.717 339.417 189.109C339.417 189.109 272.424 244.453 268.971 395.568H258.698Z" stroke="#263238" stroke-linecap="round" stroke-linejoin="round"/>
<path d="M251.941 239.359C251.941 239.359 269.772 229.086 255.157 191.961C240.542 154.836 196.648 143.575 186.725 132.389C186.725 132.389 190.729 246.354 251.941 239.359Z" fill="#92E3A9"/>
<mask id="mask8_510_73108" style="mask-type:luminance" maskUnits="userSpaceOnUse" x="186" y="132" width="75" height="108">
<path d="M251.941 239.359C251.941 239.359 269.772 229.086 255.157 191.961C240.542 154.836 196.648 143.575 186.725 132.389C186.725 132.389 190.729 246.354 251.941 239.359Z" fill="white"/>
</mask>
<g mask="url(#mask8_510_73108)">
<path opacity="0.3" d="M255.207 191.937C254.429 189.932 253.487 187.994 252.392 186.143C250.152 182.39 255.795 193.513 255.908 202.497C255.989 204.744 255.559 206.98 254.651 209.037C253.743 211.094 252.38 212.918 250.665 214.372C249.539 208.491 248.926 202.322 246.11 197.029C231.771 169.952 198.287 145.415 192.969 141.373C193.545 142.099 211.876 165.147 222.724 178.41C228.543 185.555 232.409 194.564 236.238 202.86C241.093 213.408 245.447 224.132 249.764 234.943C250.365 236.457 251.015 237.958 251.579 239.46C256.433 236.432 259.086 230.801 260.212 225.183C262.064 215.586 259.862 205.663 256.796 196.404C256.308 194.89 255.795 193.401 255.207 191.937Z" fill="black" fill-opacity="0.7"/>
</g>
<path d="M251.941 239.359C251.941 239.359 269.772 229.086 255.157 191.961C240.542 154.836 196.648 143.575 186.725 132.389C186.725 132.389 190.729 246.354 251.941 239.359Z" stroke="#263238" stroke-linecap="round" stroke-linejoin="round"/>
<path d="M250.29 193.514C250.29 193.514 253.067 213.346 246.686 226.272L243.495 218.001C243.495 218.001 221.36 217.413 209.849 203.249" stroke="#263238" stroke-linecap="round" stroke-linejoin="round"/>
<path d="M238.19 176.684C238.19 176.684 243.195 195.277 239.666 208.266L238.19 201.771C238.19 201.771 210.437 194.589 204.543 186.031" stroke="#263238" stroke-linecap="round" stroke-linejoin="round"/>
<path d="M223.813 164.584C223.813 164.584 230.52 178.461 230.369 189.972L227.091 184.354C227.091 184.354 203.655 179.925 199.563 172.555" stroke="#263238" stroke-linecap="round" stroke-linejoin="round"/>
<path d="M209.849 152.66C214.754 159.43 220.559 174.545 220.559 174.545L215.166 168.464C215.166 168.464 201.941 165.01 196.998 158.554" stroke="#263238" stroke-linecap="round" stroke-linejoin="round"/>
<path d="M270.222 331.203C270.222 331.203 265.592 203.249 201.015 152.572C201.015 152.572 263.19 208.266 264.103 351.586C264.103 351.586 266.13 351.986 267.219 348.683" fill="#92E3A9"/>
<mask id="mask9_510_73108" style="mask-type:luminance" maskUnits="userSpaceOnUse" x="201" y="152" width="70" height="200">
<path d="M270.222 331.203C270.222 331.203 265.592 203.249 201.015 152.572C201.015 152.572 263.19 208.266 264.103 351.586C264.103 351.586 266.13 351.986 267.219 348.683" fill="white"/>
</mask>
<g mask="url(#mask9_510_73108)">
<path opacity="0.3" d="M270.222 331.203C270.222 331.203 265.592 203.249 201.015 152.572C201.015 152.572 263.19 208.266 264.103 351.586C264.103 351.586 266.13 351.986 267.219 348.683" fill="black" fill-opacity="0.7"/>
</g>
<path d="M270.222 331.203C270.222 331.203 265.592 203.249 201.015 152.572C201.015 152.572 263.19 208.266 264.103 351.586C264.103 351.586 266.13 351.986 267.219 348.683" stroke="#263238" stroke-linecap="round" stroke-linejoin="round"/>
<path d="M165.804 447.432C165.804 447.432 161.5 444.029 165.804 433.393C169.107 425.247 179.856 425.648 180.444 417.127C184.848 417.677 188.364 414.762 190.642 411.196C192.919 407.629 194.758 403.35 198.562 401.473C199.814 400.898 201.065 400.585 202.216 399.972C206.733 397.569 208.297 391.075 213.177 389.599C216.055 388.723 219.433 389.912 222.074 388.573C224.714 387.234 226.015 383.568 228.88 382.316C230.11 381.941 231.364 381.653 232.634 381.453C237.702 380.127 240.968 373.945 246.21 374.083C247.724 374.146 249.351 374.759 250.702 374.083C251.766 373.558 252.404 372.344 253.505 371.918C254.453 371.693 255.444 371.732 256.371 372.031C259.298 372.661 262.346 372.409 265.13 371.305C267.632 370.167 268.208 366.851 269.734 366.1C275.803 363.109 282.61 374.759 286.126 377.674C288.178 379.388 290.493 375.009 293.158 375.109C295.585 375.209 296.824 378.963 299.227 378.663C298.113 379.539 298.751 381.478 299.977 382.191C301.288 382.74 302.699 383.009 304.119 382.98C307.572 383.342 310.688 385.157 313.691 386.921C314.23 387.181 314.701 387.562 315.068 388.035C315.43 388.585 315.505 389.286 315.881 389.824C316.669 390.938 318.496 391.075 319.084 392.251C319.269 392.887 319.378 393.542 319.409 394.203C319.797 396.055 321.987 396.894 323.876 397.031C325.766 397.169 327.793 396.944 329.407 397.945C330.524 398.864 331.539 399.9 332.435 401.035C336.189 404.676 340.543 404.476 344.009 409.081C347.638 413.898 350.09 419.166 355.271 422.645C364.03 428.538 366.532 436.847 368.922 444.567C371.312 452.287 337.365 471.507 268.821 476.424C200.277 481.342 164.903 452.638 165.804 447.432Z" fill="#263238"/>
<path opacity="0.4" d="M229.756 394.004C231.283 394.404 233.51 394.304 233.698 392.752C233.666 392.4 233.691 392.045 233.773 391.701C234.173 390.775 235.6 391.489 236.588 391.263C237.326 391.088 237.777 390.362 238.315 389.837C239.004 389.204 239.894 388.832 240.829 388.786C241.763 388.74 242.685 389.024 243.433 389.587C244.296 390.287 244.872 391.363 245.86 391.864C247.712 392.79 250.753 391.751 251.441 393.691" stroke="white" stroke-linecap="round" stroke-linejoin="round"/>
<path opacity="0.4" d="M256.146 403.775C256.574 404.049 257.059 404.223 257.564 404.284C258.068 404.345 258.581 404.29 259.062 404.126C259.543 403.961 259.981 403.69 260.342 403.332C260.704 402.974 260.98 402.54 261.151 402.061C261.288 401.56 261.338 400.972 261.764 400.659C262.414 400.196 263.29 400.822 264.091 400.897C265.68 401.06 266.594 399.208 267.632 398.019C268.262 397.314 269.068 396.79 269.968 396.5C270.868 396.21 271.829 396.166 272.752 396.371C273.675 396.576 274.527 397.024 275.219 397.668C275.911 398.311 276.42 399.128 276.691 400.034L286.126 402.536" stroke="white" stroke-linecap="round" stroke-linejoin="round"/>
<path opacity="0.4" d="M272.287 383.905C273.903 383.389 275.595 383.147 277.292 383.192C277.069 382.666 277.02 382.082 277.153 381.527C277.285 380.971 277.592 380.472 278.028 380.103C278.464 379.734 279.007 379.514 279.577 379.476C280.147 379.437 280.714 379.582 281.196 379.889C281.596 379.524 282.07 379.248 282.585 379.08C283.1 378.912 283.645 378.856 284.184 378.915C284.722 378.975 285.242 379.148 285.709 379.423C286.175 379.699 286.578 380.071 286.889 380.514L287.265 382.091C289.728 382.908 292.016 384.181 294.009 385.845" stroke="white" stroke-linecap="round" stroke-linejoin="round"/>
<path opacity="0.4" d="M298.476 395.667L300.978 396.406C300.565 395.755 301.341 394.954 302.105 394.804C302.868 394.805 303.626 394.674 304.344 394.416C305.095 393.966 305.32 393.015 305.808 392.289C306.296 391.563 307.523 391.15 307.935 391.913C307.835 391.113 308.724 390.462 309.537 390.487C310.353 390.595 311.122 390.933 311.752 391.463L318.158 395.918" stroke="white" stroke-linecap="round" stroke-linejoin="round"/>
<path d="M144.908 467.089C144.908 467.089 152.153 454.289 161.675 446.681C171.197 439.073 178.054 429.301 186.438 418.94C194.821 408.58 207.008 395.442 213.102 394.391C219.196 393.339 232.91 395.304 234.436 407.842C234.436 407.842 243.758 396.58 256.809 404.463C269.859 412.346 263.378 427.249 263.378 427.249C263.378 427.249 268.133 425.347 271.086 427.249C274.039 429.151 282.447 529.99 282.447 529.99C277.633 531.198 272.915 532.763 268.333 534.67C261.101 537.71 251.954 538.098 245.81 534.67C245.81 534.67 234.386 537.623 226.766 537.097C219.146 536.572 198.575 536.196 191.342 534.282C183.376 531.979 175.619 529.002 168.157 525.385C162.714 522.281 158.229 517.741 155.193 512.26C152.916 507.63 148.724 506.116 142.243 498.308C135.761 490.5 144.908 467.089 144.908 467.089Z" fill="white"/>
<path opacity="0.4" d="M271.086 427.25C268.233 425.423 263.703 427.124 263.39 427.25C263.956 425.828 264.375 424.352 264.642 422.845L256.821 439.324C256.821 439.324 244.721 455.065 240.392 462.122C236.063 469.179 239.766 469.918 234.449 481.154C229.131 492.39 221.348 513.887 213.114 515.626C204.881 517.366 187.388 511.385 184.135 502.964C180.882 494.543 188.727 488.599 198.35 476.399C207.972 464.199 211.963 459.632 211.2 453.977C210.437 448.321 229.969 414.236 231.22 412.159C230.707 412.835 227.692 416.877 223.913 421.869C225.603 418.711 227.059 415.432 228.267 412.059L210.262 404.477C210.262 404.477 192.556 423.321 202.078 430.528C207.309 434.494 212.489 434.557 217.306 430.528C213.552 435.445 209.861 440.013 207.797 442.265C202.078 448.521 200.927 455.466 198.362 459.57C195.797 463.674 185.612 480.716 176.828 486.872C168.044 493.029 162.851 494.718 155.694 490.864C150.814 488.224 147.786 473.734 146.334 464.813C145.421 466.252 144.933 467.127 144.933 467.127C144.933 467.127 135.799 490.526 142.28 498.334C148.762 506.142 152.941 507.656 155.218 512.286C158.258 517.745 162.726 522.273 168.144 525.386C175.63 529.003 183.407 531.983 191.393 534.295C198.625 536.185 219.196 536.573 226.816 537.098C234.436 537.624 245.86 534.671 245.86 534.671C251.954 538.099 261.088 537.724 268.383 534.671C272.568 532.939 276.86 531.48 281.233 530.304C281.634 529.791 282.009 529.253 282.41 528.715C281.371 517.065 273.851 429.039 271.086 427.25Z" fill="#92E3A9"/>
<path opacity="0.4" d="M240.818 412.047C240.818 412.047 222.674 433.056 235.187 442.227C247.7 451.399 261.251 433.919 261.839 419.442L240.818 412.047Z" fill="#92E3A9"/>
<path d="M282.46 529.99L281.208 530.303C276.835 531.479 272.542 532.938 268.358 534.67C261.113 537.723 251.979 538.098 245.835 534.67C245.835 534.67 234.411 537.635 226.791 537.097C219.171 536.559 198.6 536.184 191.367 534.294C183.39 531.981 175.622 529.001 168.144 525.385C162.712 522.266 158.234 517.723 155.193 512.247C152.916 507.617 148.724 506.116 142.255 498.296C135.786 490.475 144.908 467.089 144.908 467.089C144.908 467.089 145.396 466.213 146.309 464.774C148.812 460.733 154.643 452.262 161.675 446.681C171.197 439.048 178.054 429.301 186.437 418.94C194.821 408.58 207.008 395.442 213.102 394.391C219.196 393.339 232.909 395.304 234.436 407.842C234.436 407.842 243.758 396.58 256.809 404.463C265.355 409.656 265.567 417.827 264.629 422.832C264.363 424.339 263.943 425.814 263.378 427.236C263.691 427.124 268.22 425.422 271.073 427.236C273.926 429.051 281.358 517.052 282.334 528.701C282.409 529.54 282.46 529.99 282.46 529.99Z" stroke="#263238" stroke-linecap="round" stroke-linejoin="round"/>
<path d="M234.436 407.842C230.244 411.245 207.384 454.389 203.154 459.532C198.925 464.674 187.151 479.327 182.008 484.72C178.384 488.83 175.309 493.393 172.861 498.296C169.582 501.593 166.051 504.63 162.301 507.38" stroke="#263238" stroke-linecap="round" stroke-linejoin="round"/>
<path d="M263.378 427.25C259.671 433.53 256.328 440.018 253.368 446.682C249.614 455.529 238.89 478.101 234.423 486.723C229.956 495.344 222.799 515.001 217.657 518.154C212.514 521.308 205.081 528.44 200.514 527.864" stroke="#263238" stroke-linecap="round" stroke-linejoin="round"/>
<path d="M204.531 530.391C204.531 530.391 203.279 527.588 204.531 526.938" stroke="#263238" stroke-linecap="round" stroke-linejoin="round"/>
<path d="M249.076 531.767C249.076 531.767 259.374 521.919 260.8 514.725C262.226 507.53 282.447 450.91 282.447 450.91" stroke="#263238" stroke-linecap="round" stroke-linejoin="round"/>
<path d="M210.237 404.464C210.237 404.464 221.961 403.7 228.242 412.046C228.242 412.046 218.808 435.533 207.384 429.564C195.96 423.595 210.237 404.464 210.237 404.464Z" fill="white" stroke="#263238" stroke-linecap="round" stroke-linejoin="round"/>
<path d="M240.817 412.047C240.817 412.047 252.592 411.634 261.839 419.442C261.839 419.442 255.67 445.818 240.817 441.814C225.965 437.81 235.95 420.555 240.817 412.047Z" fill="white" stroke="#263238" stroke-linecap="round" stroke-linejoin="round"/>
<path d="M266.243 434.582C266.243 434.582 259.661 444.492 260.525 451.724C261.388 458.957 271.086 457.618 271.086 457.618" stroke="#263238" stroke-linecap="round" stroke-linejoin="round"/>
<path d="M217.094 459.531C217.094 459.531 225.177 465.512 232.997 467.101" stroke="#263238" stroke-linecap="round" stroke-linejoin="round"/>
<path d="M149.387 470.393C149.387 470.393 150.539 484.157 153.392 488.961C156.244 493.766 175.451 493.528 175.451 493.528" stroke="#263238" stroke-linecap="round" stroke-linejoin="round"/>
<path d="M180.244 502.951C183.426 508.572 188.336 513.017 194.245 515.626C204.255 520.094 211.187 518.129 211.187 518.129" stroke="#263238" stroke-linecap="round" stroke-linejoin="round"/>
<path d="M228.242 522.945C228.242 522.945 243.382 529.89 252.529 524.422" stroke="#263238" stroke-linecap="round" stroke-linejoin="round"/>
<path d="M185.962 436.91C185.962 436.91 189.19 444.418 195.722 446.144" stroke="#263238" stroke-linecap="round" stroke-linejoin="round"/>
<path d="M249.076 484.721C252.285 487.369 256.29 488.863 260.45 488.963" stroke="#263238" stroke-linecap="round" stroke-linejoin="round"/>
<path d="M393.659 492.953C393.659 492.953 384.513 509.519 374.803 514.099C365.093 518.679 357.085 516.964 351.379 520.355C345.673 523.746 335.951 525.498 322.813 527.788C309.675 530.078 296.436 532.93 287.052 531.216C283.802 530.595 280.664 529.49 277.742 527.938C271.431 524.448 265.713 519.979 260.8 514.7C256.133 509.907 256.533 502.187 259.674 496.982C260.355 495.715 261.288 494.601 262.416 493.708C263.543 492.815 264.841 492.162 266.231 491.789C266.231 491.789 263.09 489.286 259.549 486.121C255.707 482.692 251.428 478.463 250.252 475.785C247.95 470.642 248.525 461.508 256.508 453.5C258.805 451.168 261.571 449.352 264.624 448.172C267.677 446.992 270.946 446.475 274.214 446.656C274.214 446.656 261.976 436.646 266.781 424.934C268.52 420.705 271.624 415.111 281.071 413.51C294.597 411.22 302.217 418.94 302.217 418.94C302.217 418.94 300.077 405.527 313.716 402.674C327.355 399.821 357.085 421.53 362.816 424.396C366.932 426.448 373.389 431.153 379.458 434.894L380.909 435.795C382.586 436.796 384.225 437.709 385.739 438.435C392.809 443.578 394.948 451.698 398.514 453.963C399.52 454.53 400.666 454.797 401.819 454.735C402.971 454.673 404.082 454.284 405.021 453.613C405.259 453.976 405.484 454.326 405.672 454.664C408.512 459.807 415.369 481.591 393.659 492.953Z" fill="white"/>
<path opacity="0.4" d="M393.659 492.952C393.659 492.952 384.513 509.519 374.803 514.099C365.093 518.678 357.085 516.964 351.379 520.355C345.673 523.746 335.951 525.498 322.813 527.788C309.675 530.077 296.436 532.93 287.052 531.216C283.802 530.594 280.664 529.489 277.742 527.938C284.837 527.4 290.255 523.846 292.757 518.516C295.898 511.909 286.564 511.409 284.324 515.588C282.084 519.767 268.671 518.266 271.035 515.588C273.4 512.91 268.671 499.209 266.181 497.369C265.117 496.556 262.427 496.631 259.624 496.982C260.305 495.715 261.238 494.601 262.366 493.708C263.493 492.815 264.791 492.162 266.181 491.789C266.181 491.789 263.04 489.286 259.499 486.121L268.258 491.313C268.258 491.313 287.027 507.58 297.274 515.588C307.522 523.596 326.955 521.694 332.06 515.588C337.165 509.482 314.004 490.462 306.772 484.682C299.764 479.101 296.674 469.754 296.499 469.178C297.112 469.754 316.068 488.11 326.529 500.36C337.215 512.873 348.351 509.119 360.451 503.476C372.551 497.832 365.781 481.691 361.915 477.85C358.048 474.008 341.019 459.218 338.341 454.726C335.663 450.234 317.069 434.368 315.818 433.367C317.069 434.193 337.653 447.519 340.606 450.885C343.559 454.251 351.279 459.644 362.741 467.827C374.202 476.01 382.899 485.507 391.37 467.827C397.188 455.665 386.552 442.139 379.345 434.869L380.796 435.77C382.473 436.771 384.112 437.684 385.626 438.41C392.696 443.552 394.836 451.673 398.402 453.938C399.407 454.504 400.554 454.772 401.706 454.71C402.858 454.648 403.969 454.259 404.908 453.588C405.146 453.951 405.371 454.301 405.559 454.639C408.512 459.806 415.369 481.591 393.659 492.952Z" fill="#92E3A9"/>
<path opacity="0.4" d="M277.73 440.626C279.345 436.656 281.865 433.118 285.089 430.294C288.312 427.47 292.151 425.438 296.299 424.359C296.299 424.359 310.3 434.069 310.3 442.065C310.3 450.06 304.907 456.254 294.897 453.163C284.887 450.073 277.73 440.626 277.73 440.626Z" fill="#92E3A9"/>
<path opacity="0.4" d="M311.376 420.405C311.376 420.405 317.107 412.973 325.953 410.695C325.953 410.695 344.385 424.697 337.453 432.117C330.521 439.537 314.229 430.115 311.376 420.405Z" fill="#92E3A9"/>
<path opacity="0.4" d="M258.698 475.511C258.698 475.511 265.755 464.475 276.128 461.51C276.128 461.51 297.562 473.609 286.701 483.132C275.84 492.654 261.276 480.654 258.698 475.511Z" fill="#92E3A9"/>
<path d="M393.659 492.953C393.659 492.953 384.513 509.519 374.803 514.099C365.093 518.679 357.085 516.964 351.379 520.355C345.673 523.746 335.951 525.498 322.813 527.788C309.675 530.078 296.436 532.93 287.052 531.216C277.667 529.502 268.821 522.92 260.775 514.7C253.743 507.467 258.21 493.516 266.206 491.789C266.206 491.789 252.504 480.928 250.227 475.785C247.95 470.642 248.5 461.508 256.483 453.5C258.78 451.168 261.546 449.352 264.599 448.172C267.652 446.992 270.921 446.475 274.189 446.656C274.189 446.656 261.951 436.646 266.756 424.934C268.495 420.705 271.599 415.111 281.046 413.51C294.572 411.22 302.192 418.94 302.192 418.94C302.192 418.94 300.052 405.527 313.691 402.674C327.33 399.821 357.085 421.53 362.816 424.396C367.258 426.623 374.452 431.903 380.909 435.795C382.586 436.796 384.225 437.709 385.739 438.435C392.809 443.578 394.948 451.698 398.514 453.963C399.52 454.53 400.666 454.797 401.819 454.735C402.971 454.673 404.082 454.284 405.021 453.613C405.259 453.976 405.484 454.326 405.672 454.664C408.512 459.807 415.369 481.591 393.659 492.953Z" stroke="#263238" stroke-linecap="round" stroke-linejoin="round"/>
<path d="M302.229 419.029C304.144 423.434 321.524 439.05 329.032 443.629C336.539 448.209 357.473 471.057 363.567 474.085C369.66 477.113 374.991 486.66 382.223 488.95" stroke="#263238" stroke-linecap="round" stroke-linejoin="round"/>
<path d="M274.239 446.682C284.712 455.44 296.524 470.293 302.23 474.485C307.935 478.676 320.898 493.154 326.617 500.386C332.335 507.618 336.139 512.573 358.612 515.626" stroke="#263238" stroke-linecap="round" stroke-linejoin="round"/>
<path d="M366.57 493.529C366.57 493.529 365.056 507.293 344.047 509.908" stroke="#263238" stroke-linecap="round" stroke-linejoin="round"/>
<path d="M391.758 453.963C391.758 453.963 397.463 470.292 382.223 476.386" stroke="#263238" stroke-linecap="round" stroke-linejoin="round"/>
<path d="M266.243 491.814C266.243 491.814 281.021 504.189 287.052 507.618C293.083 511.046 301.091 520.193 307.185 522.095C311.172 523.198 315.384 523.198 319.372 522.095" stroke="#263238" stroke-linecap="round" stroke-linejoin="round"/>
<path d="M335.163 508.883C333.591 511.518 331.506 513.812 329.032 515.627" stroke="#263238" stroke-linecap="round" stroke-linejoin="round"/>
<path d="M274.239 438.386C275.848 434.412 278.366 430.871 281.591 428.046C284.815 425.222 288.657 423.192 292.808 422.119C292.808 422.119 306.809 431.829 306.809 439.837C306.809 447.845 301.404 454.014 291.394 450.923C281.384 447.833 274.239 438.386 274.239 438.386Z" fill="white" stroke="#263238" stroke-linecap="round" stroke-linejoin="round"/>
<path d="M309.086 419.029C309.086 419.029 314.817 411.596 323.664 409.307C323.664 409.307 342.107 423.308 335.163 430.741C328.218 438.173 311.952 428.676 309.086 419.029Z" fill="white" stroke="#263238" stroke-linecap="round" stroke-linejoin="round"/>
<path d="M256.809 473.533C256.809 473.533 263.853 462.484 274.239 459.531C274.239 459.531 295.66 471.631 284.812 481.153C273.963 490.675 259.386 478.676 256.809 473.533Z" fill="white" stroke="#263238" stroke-linecap="round" stroke-linejoin="round"/>
<path d="M261.839 509.371C261.839 509.371 271.774 507.356 274.214 498.297C274.214 498.297 284.374 506.142 278.518 512.248C269.909 521.245 261.839 509.371 261.839 509.371Z" fill="white" stroke="#263238" stroke-linecap="round" stroke-linejoin="round"/>
<path d="M348.802 449.246C350.543 448.282 352.041 446.931 353.18 445.298C354.318 443.664 355.068 441.792 355.371 439.824" stroke="#263238" stroke-linecap="round" stroke-linejoin="round"/>
<path d="M330.808 459.531C330.808 459.531 328.594 472.044 316.419 474.096" stroke="#263238" stroke-linecap="round" stroke-linejoin="round"/>
<path d="M300.253 488.961C300.253 488.961 295.248 496.206 287.89 498.295" stroke="#263238" stroke-linecap="round" stroke-linejoin="round"/>
<path d="M304.757 521.031C302.699 524.016 299.847 526.365 296.524 527.813" stroke="#263238" stroke-linecap="round" stroke-linejoin="round"/>
<path d="M313.741 522.945C313.87 523.799 313.826 524.67 313.611 525.506C313.396 526.343 313.015 527.127 312.49 527.813" stroke="#263238" stroke-linecap="round" stroke-linejoin="round"/>
<path d="M278.243 525.387C280.705 525.181 283.089 524.42 285.215 523.161C287.341 521.902 289.154 520.178 290.518 518.117" stroke="#263238" stroke-linecap="round" stroke-linejoin="round"/>
</svg>
