<?xml version="1.0" encoding="UTF-8"?>
<!DOCTYPE svg PUBLIC "-//W3C//DTD SVG 1.1//EN" "http://www.w3.org/Graphics/SVG/1.1/DTD/svg11.dtd">
<svg xmlns="http://www.w3.org/2000/svg" version="1.1" width="327px" height="225px" style="shape-rendering:geometricPrecision; text-rendering:geometricPrecision; image-rendering:optimizeQuality; fill-rule:evenodd; clip-rule:evenodd" xmlns:xlink="http://www.w3.org/1999/xlink">
<g><path style="opacity:0.993" fill="#fefefe" d="M 14.5,-0.5 C 113.5,-0.5 212.5,-0.5 311.5,-0.5C 318.31,1.73922 323.31,6.07255 326.5,12.5C 326.5,78.8333 326.5,145.167 326.5,211.5C 323.639,218.365 318.639,222.698 311.5,224.5C 212.5,224.5 113.5,224.5 14.5,224.5C 7.6902,222.261 2.6902,217.927 -0.5,211.5C -0.5,145.167 -0.5,78.8333 -0.5,12.5C 2.36134,5.63486 7.36134,1.30153 14.5,-0.5 Z"/></g>
<g><path style="opacity:1" fill="#0b0b0b" d="M 216.5,29.5 C 215.5,29.5 214.5,29.5 213.5,29.5C 199.43,30.2801 185.43,31.7801 171.5,34C 148.098,38.2705 124.765,42.7705 101.5,47.5C 100.833,47.5 100.5,47.1667 100.5,46.5C 101.342,44.2353 101.009,41.902 99.5,39.5C 89.6925,37.5923 89.0259,34.0923 97.5,29C 131.49,21.6674 165.49,14.3341 199.5,7C 202.833,6.33333 206.167,6.33333 209.5,7C 212.595,11.0874 211.595,13.9207 206.5,15.5C 205.509,19.4454 205.176,23.4454 205.5,27.5C 209.489,27.1164 213.155,27.783 216.5,29.5 Z"/></g>
<g><path style="opacity:1" fill="#f6f6f6" d="M 185.5,19.5 C 192.898,18.5599 196.565,21.8933 196.5,29.5C 184.073,30.1896 171.739,31.6896 159.5,34C 143.15,37.169 126.816,40.3357 110.5,43.5C 110.5,40.8333 110.5,38.1667 110.5,35.5C 135.321,28.7069 160.321,23.3736 185.5,19.5 Z"/></g>
<g><path style="opacity:1" fill="#59c27c" d="M 213.5,29.5 C 219.575,33.7387 224.908,38.9054 229.5,45C 231.025,46.0086 232.692,46.5086 234.5,46.5C 234.785,50.7166 232.785,52.8832 228.5,53C 183.992,59.7927 139.492,66.626 95,73.5C 93.1667,73.3333 91.3333,73.1667 89.5,73C 87.5904,72.5917 86.5904,71.4251 86.5,69.5C 89.9933,63.8748 92.8267,57.8748 95,51.5C 97.3143,50.2668 99.4809,48.9334 101.5,47.5C 124.765,42.7705 148.098,38.2705 171.5,34C 185.43,31.7801 199.43,30.2801 213.5,29.5 Z"/></g>
<g><path style="opacity:1" fill="#0e1811" d="M 210.5,40.5 C 213.187,40.3359 215.854,40.5026 218.5,41C 178.42,46.8203 138.587,54.3203 99,63.5C 98.5,63.1667 98,62.8333 97.5,62.5C 108.643,59.0476 119.976,56.2143 131.5,54C 157.948,49.2594 184.281,44.7594 210.5,40.5 Z"/></g>
<g><path style="opacity:1" fill="#5bc67f" d="M 223.5,141.5 C 223.048,148.831 222.548,156.165 222,163.5C 219.931,164.264 217.764,164.764 215.5,165C 214.919,165.893 214.585,166.893 214.5,168C 216.405,175.77 217.572,183.603 218,191.5C 217.25,192.126 216.416,192.626 215.5,193C 191.361,197.925 167.027,201.258 142.5,203C 141.299,202.097 140.465,200.931 140,199.5C 138.561,193.875 137.228,188.208 136,182.5C 134.556,180.845 132.722,180.178 130.5,180.5C 118.492,145.474 106.492,110.474 94.5,75.5C 139.514,68.7489 184.514,62.0822 229.5,55.5C 227.987,84.1977 225.987,112.864 223.5,141.5 Z"/></g>
<g><path style="opacity:1" fill="#141b16" d="M 213.5,29.5 C 214.5,29.5 215.5,29.5 216.5,29.5C 221.649,32.4834 225.649,36.6501 228.5,42C 230.5,43 232.5,44 234.5,45C 237.88,50.0136 236.547,53.3469 230.5,55C 231.642,61.0844 231.809,67.2511 231,73.5C 228.919,98.6593 226.753,123.659 224.5,148.5C 224.802,145.941 224.468,143.607 223.5,141.5C 225.987,112.864 227.987,84.1977 229.5,55.5C 184.514,62.0822 139.514,68.7489 94.5,75.5C 106.492,110.474 118.492,145.474 130.5,180.5C 129.778,181.551 128.778,182.218 127.5,182.5C 127.923,181.735 128.257,180.902 128.5,180C 117.591,147.605 106.091,115.439 94,83.5C 92.9207,80.9373 92.4207,78.2706 92.5,75.5C 87.0095,75.5125 84.5095,72.8458 85,67.5C 88.0991,62.8751 90.4324,57.8751 92,52.5C 94.1775,49.4769 97.0108,47.4769 100.5,46.5C 100.5,47.1667 100.833,47.5 101.5,47.5C 99.4809,48.9334 97.3143,50.2668 95,51.5C 92.8267,57.8748 89.9933,63.8748 86.5,69.5C 86.5904,71.4251 87.5904,72.5917 89.5,73C 91.3333,73.1667 93.1667,73.3333 95,73.5C 139.492,66.626 183.992,59.7927 228.5,53C 232.785,52.8832 234.785,50.7166 234.5,46.5C 232.692,46.5086 231.025,46.0086 229.5,45C 224.908,38.9054 219.575,33.7387 213.5,29.5 Z"/></g>
<g><path style="opacity:1" fill="#d7d7b8" d="M 101.5,81.5 C 102.496,81.4142 103.329,81.7476 104,82.5C 110.115,96.5605 116.615,110.394 123.5,124C 122.551,124.617 121.718,124.451 121,123.5C 113.818,109.773 107.318,95.7726 101.5,81.5 Z"/></g>
<g><path style="opacity:1" fill="#0e1810" d="M 165.5,89.5 C 172.333,90.7434 177,94.5768 179.5,101C 177.791,106.042 174.625,109.875 170,112.5C 169.228,112.355 168.561,112.022 168,111.5C 167.798,109.744 167.298,108.078 166.5,106.5C 161.113,109.554 157.113,113.887 154.5,119.5C 150.011,121.525 147.678,120.025 147.5,115C 150.446,106.414 156.279,100.58 165,97.5C 165.497,94.854 165.664,92.1873 165.5,89.5 Z"/></g>
<g><path style="opacity:1" fill="#56bc78" d="M 167.5,91.5 C 179.316,96.2549 180.316,102.588 170.5,110.5C 169.534,108.604 169.201,106.604 169.5,104.5C 161.634,105.857 156.301,110.357 153.5,118C 152.216,118.684 151.049,118.517 150,117.5C 149.333,115.833 149.333,114.167 150,112.5C 153.996,105.668 159.829,101.335 167.5,99.5C 167.5,96.8333 167.5,94.1667 167.5,91.5 Z"/></g>
<g><path style="opacity:1" fill="#d3d6b6" d="M 221.5,81.5 C 222.693,81.9704 223.36,82.9704 223.5,84.5C 221.915,97.5143 220.248,110.514 218.5,123.5C 217.338,118.533 217.171,113.533 218,108.5C 219.25,99.5007 220.417,90.5007 221.5,81.5 Z"/></g>
<g><path style="opacity:1" fill="#0d1710" d="M 186.5,104.5 C 191.902,104.395 195.069,107.062 196,112.5C 196.498,115.482 196.665,118.482 196.5,121.5C 200.509,121.014 202.342,122.68 202,126.5C 197.492,130.084 192.826,133.418 188,136.5C 183.959,133.96 180.792,130.626 178.5,126.5C 178.608,125.558 178.941,124.725 179.5,124C 181.74,123.023 184.073,122.523 186.5,122.5C 186.731,118.008 186.064,113.675 184.5,109.5C 184.437,107.486 185.103,105.819 186.5,104.5 Z"/></g>
<g><path style="opacity:1" fill="#57be7a" d="M 186.5,106.5 C 188.722,106.178 190.556,106.845 192,108.5C 193.94,112.943 194.94,117.61 195,122.5C 196.825,123.103 198.659,123.77 200.5,124.5C 197.064,128.271 193.064,131.271 188.5,133.5C 185.243,131.914 182.576,129.581 180.5,126.5C 182.851,124.771 185.518,124.104 188.5,124.5C 188.621,118.369 187.954,112.369 186.5,106.5 Z"/></g>
<g><path style="opacity:1" fill="#0e1811" d="M 152.5,125.5 C 157.179,125.334 161.845,125.501 166.5,126C 167.497,128.403 167.164,130.736 165.5,133C 165.759,134.261 166.426,135.261 167.5,136C 171.188,136.45 174.854,136.283 178.5,135.5C 178.735,143.095 175.068,146.262 167.5,145C 164.971,142.971 162.304,141.138 159.5,139.5C 157.255,141.623 154.588,142.623 151.5,142.5C 151.214,136.741 151.548,131.075 152.5,125.5 Z"/></g>
<g><path style="opacity:1" fill="#56bd78" d="M 153.5,127.5 C 157.555,127.176 161.555,127.509 165.5,128.5C 164.62,130.429 163.62,132.263 162.5,134C 165.935,138.328 170.269,139.495 175.5,137.5C 176.298,140.904 174.798,142.904 171,143.5C 166.845,141.756 162.845,139.756 159,137.5C 157.08,138.088 155.413,139.088 154,140.5C 153.501,136.179 153.334,131.846 153.5,127.5 Z"/></g>
<g><path style="opacity:1" fill="#080a09" d="M 223.5,141.5 C 224.468,143.607 224.802,145.941 224.5,148.5C 224.084,153.493 223.751,158.493 223.5,163.5C 226.325,163.081 228.491,164.081 230,166.5C 233.011,176.912 234.511,187.412 234.5,198C 230.254,200.607 226.088,200.774 222,198.5C 221.457,196.369 220.624,194.369 219.5,192.5C 213.157,195.273 206.491,197.106 199.5,198C 179.931,201.296 160.264,203.796 140.5,205.5C 141.593,209.108 141.76,212.775 141,216.5C 137.31,218.031 133.477,218.531 129.5,218C 127.811,215.443 126.644,212.609 126,209.5C 124.58,202.319 123.08,195.152 121.5,188C 122.039,184.629 124.039,182.796 127.5,182.5C 128.778,182.218 129.778,181.551 130.5,180.5C 132.722,180.178 134.556,180.845 136,182.5C 137.228,188.208 138.561,193.875 140,199.5C 140.465,200.931 141.299,202.097 142.5,203C 167.027,201.258 191.361,197.925 215.5,193C 216.416,192.626 217.25,192.126 218,191.5C 217.572,183.603 216.405,175.77 214.5,168C 214.585,166.893 214.919,165.893 215.5,165C 217.764,164.764 219.931,164.264 222,163.5C 222.548,156.165 223.048,148.831 223.5,141.5 Z"/></g>
<g><path style="opacity:1" fill="#c6baa5" d="M 222.5,173.5 C 224.527,173.338 226.527,173.505 228.5,174C 225.685,175.958 222.685,176.458 219.5,175.5C 220.602,174.824 221.602,174.158 222.5,173.5 Z"/></g>
<g><path style="opacity:1" fill="#aca28f" d="M 227.5,185.5 C 228.5,185.5 229.5,185.5 230.5,185.5C 230.5,186.5 230.5,187.5 230.5,188.5C 228.409,188.318 226.409,188.652 224.5,189.5C 223.614,188.675 223.281,187.675 223.5,186.5C 225.099,186.768 226.432,186.434 227.5,185.5 Z"/></g>
<g><path style="opacity:1" fill="#c3b7a2" d="M 131.5,188.5 C 133.048,188.821 133.715,189.821 133.5,191.5C 130.989,191.838 128.655,191.838 126.5,191.5C 127.947,190.065 129.614,189.065 131.5,188.5 Z"/></g>
<g><path style="opacity:1" fill="#d4d6b7" d="M 193.5,189.5 C 196.518,189.335 199.518,189.502 202.5,190C 185.336,193.471 168.003,195.971 150.5,197.5C 148.167,197.167 145.833,196.833 143.5,196.5C 160.378,194.642 177.045,192.309 193.5,189.5 Z"/></g>
<g><path style="opacity:1" fill="#b8ad99" d="M 133.5,204.5 C 134.675,204.281 135.675,204.614 136.5,205.5C 134.711,206.877 132.711,207.877 130.5,208.5C 129.479,207.998 129.312,207.332 130,206.5C 131.302,205.915 132.469,205.249 133.5,204.5 Z"/></g>
</svg>
